<svg width="370" height="310" viewBox="0 0 370 310" fill="none" xmlns="http://www.w3.org/2000/svg">
<g filter="url(#filter0_d)">
<path fill-rule="evenodd" clip-rule="evenodd" d="M264.441 1.14671C311.634 1.07043 330.532 1.03989 347.713 24.1233C367.113 50.1233 364.713 118.123 364.713 118.123L365 241H226.5L236.713 202.123L111.713 299.123V241.123C111.667 241.123 111.299 241.151 110.685 241.198C107.28 241.457 96.3044 242.293 90.7127 242.123C69.3127 241.523 52.7127 239.623 39.7127 231.123C25.7127 221.923 14.8127 211.023 8.71266 194.123C2.81266 177.823 5.71266 1.12334 5.71266 1.12334C5.71266 1.12334 180.925 0.746673 243.713 1.12334C251.181 1.16815 258.069 1.15701 264.441 1.14671ZM193.837 120.816C193.837 115.184 193.005 110.832 191.341 107.76C189.742 104.688 187.437 103.152 184.43 103.152C181.422 103.152 179.117 104.688 177.518 107.76C175.982 110.832 175.214 115.184 175.214 120.816C175.214 126.448 175.982 130.832 177.518 133.968C179.117 137.04 181.422 138.576 184.43 138.576C187.437 138.576 189.742 137.04 191.341 133.968C193.005 130.832 193.837 126.448 193.837 120.816ZM210.254 120.816C210.254 125.744 209.613 130.128 208.333 133.968C207.053 137.808 205.262 141.04 202.958 143.664C200.717 146.224 197.997 148.176 194.798 149.52C191.661 150.864 188.237 151.536 184.525 151.536C180.749 151.536 177.262 150.864 174.061 149.52C170.926 148.176 168.206 146.224 165.901 143.664C163.661 141.04 161.901 137.808 160.621 133.968C159.405 130.128 158.798 125.744 158.798 120.816C158.798 115.888 159.405 111.536 160.621 107.76C161.901 103.92 163.661 100.72 165.901 98.16C168.206 95.536 170.926 93.552 174.061 92.208C177.262 90.864 180.749 90.192 184.525 90.192C188.237 90.192 191.661 90.864 194.798 92.208C197.997 93.552 200.717 95.536 202.958 98.16C205.262 100.72 207.053 103.92 208.333 107.76C209.613 111.536 210.254 115.888 210.254 120.816ZM105.456 92.304C106.672 91.92 108.048 91.6 109.584 91.344C111.184 91.088 112.624 90.96 113.904 90.96C115.376 90.96 116.784 91.12 118.128 91.44C119.536 91.696 120.784 92.176 121.872 92.88C122.96 93.52 123.824 94.416 124.464 95.568C125.104 96.72 125.424 98.16 125.424 99.888V125.424H133.968C134.352 126.128 134.736 127.056 135.12 128.208C135.504 129.36 135.696 130.576 135.696 131.856C135.696 134.288 135.152 136.016 134.064 137.04C132.976 138.064 131.6 138.576 129.936 138.576H125.424V149.904C124.72 150.032 123.664 150.192 122.256 150.384C120.848 150.64 119.504 150.768 118.224 150.768C116.816 150.768 115.568 150.704 114.48 150.576C113.392 150.448 112.464 150.16 111.696 149.712C110.992 149.2 110.448 148.496 110.064 147.6C109.68 146.704 109.488 145.488 109.488 143.952V138.576H85.392C83.92 137.808 82.64 136.688 81.552 135.216C80.528 133.68 80.016 131.824 80.016 129.648C80.016 128.432 80.176 127.088 80.496 125.616C80.816 124.144 81.36 122.864 82.128 121.776L105.456 92.304ZM110.352 107.376H110.064L97.296 125.424H110.352V107.376ZM264.459 91.344C262.923 91.6 261.547 91.92 260.331 92.304L237.003 121.776C236.235 122.864 235.691 124.144 235.371 125.616C235.051 127.088 234.891 128.432 234.891 129.648C234.891 131.824 235.403 133.68 236.427 135.216C237.515 136.688 238.795 137.808 240.267 138.576H264.363V143.952C264.363 145.488 264.555 146.704 264.939 147.6C265.323 148.496 265.867 149.2 266.571 149.712C267.339 150.16 268.267 150.448 269.355 150.576C270.443 150.704 271.691 150.768 273.099 150.768C274.379 150.768 275.723 150.64 277.131 150.384C278.539 150.192 279.595 150.032 280.299 149.904V138.576H284.811C286.475 138.576 287.851 138.064 288.939 137.04C290.027 136.016 290.571 134.288 290.571 131.856C290.571 130.576 290.379 129.36 289.995 128.208C289.611 127.056 289.227 126.128 288.843 125.424H280.299V99.888C280.299 98.16 279.979 96.72 279.339 95.568C278.699 94.416 277.835 93.52 276.747 92.88C275.659 92.176 274.411 91.696 273.003 91.44C271.659 91.12 270.251 90.96 268.779 90.96C267.499 90.96 266.059 91.088 264.459 91.344ZM264.939 107.376H265.227V125.424H252.171L264.939 107.376Z" fill="#121212"/>
</g>
<defs>
<filter id="filter0_d" x="-4.76837e-07" y="0.955933" width="370" height="308.167" filterUnits="userSpaceOnUse" color-interpolation-filters="sRGB">
<feFlood flood-opacity="0" result="BackgroundImageFix"/>
<feColorMatrix in="SourceAlpha" type="matrix" values="0 0 0 0 0 0 0 0 0 0 0 0 0 0 0 0 0 0 127 0"/>
<feOffset dy="5"/>
<feGaussianBlur stdDeviation="2.5"/>
<feColorMatrix type="matrix" values="0 0 0 0 0 0 0 0 0 0 0 0 0 0 0 0 0 0 0.25 0"/>
<feBlend mode="normal" in2="BackgroundImageFix" result="effect1_dropShadow"/>
<feBlend mode="normal" in="SourceGraphic" in2="effect1_dropShadow" result="shape"/>
</filter>
</defs>
</svg>
