<svg width="170" height="143" viewBox="0 0 170 143" fill="none" xmlns="http://www.w3.org/2000/svg">
    <g filter="url(#filter0_d)">
        <path d="M91.0406 50.3733C91.574 50.1358 92.1962 50.017 92.9073 50.017C94.0036 50.017 94.8332 50.3139 95.3962 50.9078C95.9591 51.5016 96.2851 52.0955 96.374 52.6893L88.774 53.9364C88.8036 53.4613 88.8925 53.0011 89.0406 52.5557C89.2184 52.0806 89.4703 51.6649 89.7962 51.3086C90.1221 50.9226 90.5369 50.6108 91.0406 50.3733Z" fill="#121212"/>
        <path fill-rule="evenodd" clip-rule="evenodd"
              d="M120.307 0.0849718C141.282 0.0509967 149.681 0.037392 157.317 10.3185C165.939 21.8985 164.872 52.1849 164.872 52.1849L165 106.913H103.444L107.983 89.5974L52.4279 132.8V106.968C52.4075 106.968 52.244 106.98 51.9711 107.001C50.4577 107.116 45.5797 107.488 43.0945 107.413C33.5834 107.146 26.2056 106.299 20.4278 102.514C14.2056 98.4161 9.36118 93.5614 6.65007 86.0343C4.02785 78.7745 5.31674 0.0745614 5.31674 0.0745614C5.31674 0.0745614 83.189 -0.0932018 111.095 0.0745614C114.414 0.0945172 117.475 0.0895589 120.307 0.0849718ZM25 40.9311C24.2593 41.6734 23.8889 42.683 23.8889 43.9597V62.7996C23.8889 64.0764 24.2593 65.0859 25 65.8283C25.7407 66.5706 26.7481 66.9417 28.0222 66.9417H41C41.8 66.9417 42.437 66.7042 42.9111 66.2291C43.4148 65.7243 43.6667 64.9078 43.6667 63.7795C43.6667 63.1856 43.5778 62.6215 43.4 62.087C43.2519 61.5525 43.0741 61.122 42.8667 60.7954H31.4444V56.1188H39.6222C40.4222 56.1188 41.0593 55.8813 41.5333 55.4062C42.0074 54.9311 42.2444 54.1294 42.2444 53.0011C42.2444 52.4072 42.1556 51.8579 41.9778 51.3532C41.8296 50.8187 41.6519 50.3882 41.4444 50.0615H31.4444V45.9194H40.8222C41.6222 45.9194 42.2593 45.6819 42.7333 45.2068C43.237 44.7317 43.4889 43.93 43.4889 42.8017C43.4889 42.2079 43.4 41.6437 43.2222 41.1093C43.0741 40.5748 42.8963 40.1442 42.6889 39.8176H28.0222C26.7481 39.8176 25.7407 40.1888 25 40.9311ZM53.5764 67.0308C54.2282 66.9417 54.7023 66.8526 54.9986 66.7636V51.5759C55.3838 51.3977 55.8431 51.2492 56.3764 51.1305C56.9394 50.982 57.5319 50.8484 58.1542 50.7296C58.7764 50.6108 59.4134 50.5218 60.0653 50.4624C60.7171 50.403 61.3542 50.3733 61.9764 50.3733C62.1542 50.0467 62.3023 49.6904 62.4208 49.3044C62.5394 48.8887 62.5986 48.473 62.5986 48.0573C62.5986 46.8102 62.1838 45.9194 61.3542 45.385C60.5245 44.8208 59.3986 44.5387 57.9764 44.5387C57.1171 44.5387 56.2579 44.613 55.3986 44.7614C54.5394 44.8802 53.7097 45.0584 52.9097 45.2959C52.1097 45.5334 51.3542 45.8155 50.6431 46.1421C49.9616 46.4391 49.3838 46.7805 48.9097 47.1665C48.4356 47.5525 48.0653 47.9979 47.7986 48.5027C47.5616 48.9778 47.4431 49.5568 47.4431 50.2397V63.6013C47.4431 64.3436 47.5319 64.9523 47.7097 65.4274C47.9171 65.8728 48.1986 66.2291 48.5542 66.4963C48.9097 66.7636 49.3394 66.9417 49.8431 67.0308C50.3764 67.1199 50.969 67.1644 51.6208 67.1644C52.3023 67.1644 52.9542 67.1199 53.5764 67.0308ZM71.4149 67.0308C72.0668 66.9417 72.5409 66.8526 72.8372 66.7636V51.5759C73.2223 51.3977 73.6816 51.2492 74.2149 51.1305C74.7779 50.982 75.3705 50.8484 75.9927 50.7296C76.6149 50.6108 77.252 50.5218 77.9038 50.4624C78.5557 50.403 79.1927 50.3733 79.8149 50.3733C79.9927 50.0467 80.1409 49.6904 80.2594 49.3044C80.3779 48.8887 80.4372 48.473 80.4372 48.0573C80.4372 46.8102 80.0223 45.9194 79.1927 45.385C78.3631 44.8208 77.2371 44.5387 75.8149 44.5387C74.9557 44.5387 74.0964 44.613 73.2371 44.7614C72.3779 44.8802 71.5483 45.0584 70.7483 45.2959C69.9483 45.5334 69.1927 45.8155 68.4816 46.1421C67.8001 46.4391 67.2223 46.7805 66.7483 47.1665C66.2742 47.5525 65.9038 47.9979 65.6372 48.5027C65.4001 48.9778 65.2816 49.5568 65.2816 50.2397V63.6013C65.2816 64.3436 65.3705 64.9523 65.5483 65.4274C65.7557 65.8728 66.0372 66.2291 66.3927 66.4963C66.7483 66.7636 67.1779 66.9417 67.6816 67.0308C68.2149 67.1199 68.8075 67.1644 69.4594 67.1644C70.1409 67.1644 70.7927 67.1199 71.4149 67.0308ZM89.2628 66.8081C90.774 67.2832 92.4036 67.5207 94.1517 67.5207C95.1888 67.5207 96.2999 67.4316 97.4851 67.2535C98.6703 67.0753 99.7369 66.7339 100.685 66.2291C101.93 65.5759 102.552 64.5812 102.552 63.245C102.552 62.6512 102.389 62.087 102.063 61.5525C101.737 61.0181 101.337 60.6024 100.863 60.3054C100.181 60.7211 99.2925 61.0923 98.1962 61.4189C97.1295 61.7158 95.9888 61.8643 94.774 61.8643C93.4703 61.8643 92.3147 61.6268 91.3073 61.1517C90.2999 60.6469 89.6332 59.9046 89.3073 58.9247L100.285 57.2768C101.292 57.1284 102.078 56.7869 102.641 56.2524C103.204 55.718 103.485 54.946 103.485 53.9364C103.485 52.5706 103.218 51.3086 102.685 50.1506C102.181 48.9926 101.455 47.9979 100.507 47.1665C99.5888 46.3351 98.4777 45.6819 97.174 45.2068C95.8999 44.7317 94.4777 44.4942 92.9073 44.4942C91.5147 44.4942 90.1517 44.7169 88.8184 45.1623C87.4851 45.578 86.2999 46.2461 85.2628 47.1665C84.2258 48.0573 83.3814 49.2153 82.7295 50.6405C82.1073 52.0361 81.7962 53.7137 81.7962 55.6734C81.7962 57.6628 82.1073 59.3998 82.7295 60.8845C83.3814 62.3691 84.2554 63.6013 85.3517 64.5812C86.4777 65.561 87.7814 66.3033 89.2628 66.8081ZM108.5 45.2068C107.877 45.2959 107.418 45.385 107.122 45.474V58.2121C107.122 59.8749 107.389 61.3001 107.922 62.4878C108.455 63.6459 109.211 64.596 110.189 65.3383C111.166 66.0806 112.322 66.63 113.655 66.9863C115.018 67.3426 116.5 67.5207 118.1 67.5207C119.789 67.5207 121.344 67.3426 122.766 66.9863C124.218 66.6596 125.463 66.1697 126.5 65.5165C127.744 64.7742 128.366 63.6607 128.366 62.1761V48.6363C128.366 47.894 128.263 47.3001 128.055 46.8547C127.877 46.3797 127.611 46.0085 127.255 45.7413C126.9 45.474 126.455 45.2959 125.922 45.2068C125.418 45.1177 124.84 45.0732 124.189 45.0732C123.507 45.0732 122.84 45.1177 122.189 45.2068C121.566 45.2959 121.107 45.385 120.811 45.474V61.0626C120.574 61.1814 120.233 61.3001 119.789 61.4189C119.374 61.5377 118.826 61.5971 118.144 61.5971C117.018 61.5971 116.159 61.3447 115.566 60.8399C114.974 60.3054 114.677 59.4295 114.677 58.2121V48.6363C114.677 47.894 114.574 47.3001 114.366 46.8547C114.189 46.3797 113.922 46.0085 113.566 45.7413C113.211 45.474 112.766 45.2959 112.233 45.2068C111.729 45.1177 111.152 45.0732 110.5 45.0732C109.818 45.0732 109.152 45.1177 108.5 45.2068ZM139.123 67.0308C139.775 66.9417 140.249 66.8526 140.545 66.7636V51.5759C140.931 51.3977 141.39 51.2492 141.923 51.1305C142.486 50.982 143.079 50.8484 143.701 50.7296C144.323 50.6108 144.96 50.5218 145.612 50.4624C146.264 50.403 146.901 50.3733 147.523 50.3733C147.701 50.0467 147.849 49.6904 147.968 49.3044C148.086 48.8887 148.145 48.473 148.145 48.0573C148.145 46.8102 147.731 45.9194 146.901 45.385C146.071 44.8208 144.945 44.5387 143.523 44.5387C142.664 44.5387 141.805 44.613 140.945 44.7614C140.086 44.8802 139.257 45.0584 138.457 45.2959C137.657 45.5334 136.901 45.8155 136.19 46.1421C135.508 46.4391 134.931 46.7805 134.457 47.1665C133.983 47.5525 133.612 47.9979 133.345 48.5027C133.108 48.9778 132.99 49.5568 132.99 50.2397V63.6013C132.99 64.3436 133.079 64.9523 133.257 65.4274C133.464 65.8728 133.745 66.2291 134.101 66.4963C134.457 66.7636 134.886 66.9417 135.39 67.0308C135.923 67.1199 136.516 67.1644 137.168 67.1644C137.849 67.1644 138.501 67.1199 139.123 67.0308Z"
              fill="#121212"/>
    </g>
    <defs>
        <filter id="filter0_d" x="0" y="0" width="170" height="142.8" filterUnits="userSpaceOnUse" color-interpolation-filters="sRGB">
            <feFlood flood-opacity="0" result="BackgroundImageFix"/>
            <feColorMatrix in="SourceAlpha" type="matrix" values="0 0 0 0 0 0 0 0 0 0 0 0 0 0 0 0 0 0 127 0"/>
            <feOffset dy="5"/>
            <feGaussianBlur stdDeviation="2.5"/>
            <feColorMatrix type="matrix" values="0 0 0 0 0 0 0 0 0 0 0 0 0 0 0 0 0 0 0.25 0"/>
            <feBlend mode="normal" in2="BackgroundImageFix" result="effect1_dropShadow"/>
            <feBlend mode="normal" in="SourceGraphic" in2="effect1_dropShadow" result="shape"/>
        </filter>
    </defs>
</svg>
