<svg width="360" height="299" viewBox="0 0 360 299" fill="none" xmlns="http://www.w3.org/2000/svg">
<path fill-rule="evenodd" clip-rule="evenodd" d="M342.713 23.1233C323.213 -3.07667 284.113 0.123332 238.713 0.123332C159.413 0.123332 80.0127 0.123332 0.712658 0.123332C0.712658 43.1233 -2.18734 176.823 3.71266 193.123C9.81266 210.023 20.7127 220.923 34.7127 230.123C47.7127 238.623 64.3127 240.523 85.7127 241.123C92.3127 241.323 106.413 240.123 106.713 240.123C106.713 259.423 106.713 278.823 106.713 298.123C118.213 293.923 184.013 235.623 203.713 221.123C212.513 214.623 231.013 201.123 231.713 201.123C228.713 214.123 225.413 228.223 222.413 241.223C222.713 241.223 347.313 240.123 359.713 240.123C359.713 199.123 359.713 158.123 359.713 117.123C359.713 72.4233 362.113 49.1233 342.713 23.1233ZM104.913 144.723C89.8127 144.723 77.5127 132.423 77.5127 117.323C77.5127 102.223 89.8127 89.9233 104.913 89.9233C120.013 89.9233 132.313 102.223 132.313 117.323C132.313 132.423 120.013 144.723 104.913 144.723ZM179.813 144.723C164.713 144.723 152.413 132.423 152.413 117.323C152.413 102.223 164.713 89.9233 179.813 89.9233C194.913 89.9233 207.213 102.223 207.213 117.323C207.213 132.423 194.913 144.723 179.813 144.723ZM258.213 144.723C243.113 144.723 230.813 132.423 230.813 117.323C230.813 102.223 243.113 89.9233 258.213 89.9233C273.313 89.9233 285.613 102.223 285.613 117.323C285.613 132.423 273.413 144.723 258.213 144.723Z" fill="white"/>
</svg>
